<svg xmlns="http://www.w3.org/2000/svg" style="display:none"><symbol id="window-control_close" viewBox="0 0 30 30"><line x1="19.5" x2="10.5" y1="10.5" y2="19.5" fill="none" stroke="currentcolor" stroke-linecap="round"/><line x1="10.5" x2="19.5" y1="10.5" y2="19.5" fill="none" stroke="currentcolor" stroke-linecap="round"/></symbol><symbol id="window-control_maximize" viewBox="0 0 30 30"><rect width="9" height="9" x="10.5" y="10.5" fill="none" stroke="currentcolor"/></symbol><symbol id="window-control_restore" viewBox="0 0 30 30"><polyline fill="none" stroke="currentcolor" points="13.5 12 13.5 9.5 20.5 9.5 20.5 16.5 18 16.5"/><rect width="7" height="7" x="9.5" y="13.5" fill="none" stroke="currentcolor"/></symbol><symbol id="window-control_minimize" viewBox="0 0 30 30"><line x1="10" x2="20" y1="19.5" y2="19.5" fill="none" stroke="currentcolor"/></symbol><symbol id="window-control_support" viewBox="0 0 30 30"><rect width="2" height="2" x="13.5" y="19" fill="currentcolor"/><path fill="currentcolor" d="M16.5,9H12v1h4.5A1.5,1.5,0,0,1,18,11.5v1A1.5,1.5,0,0,1,16.5,14H14v3h1V15h1.5A2.5,2.5,0,0,0,19,12.5v-1A2.5,2.5,0,0,0,16.5,9Z"/></symbol><symbol id="window-control_settings" viewBox="0 0 30 30"><path fill="currentcolor" d="M22,16.3V13.7H19.81a4.94,4.94,0,0,0-.49-1.18L20.87,11,19,9.13l-1.55,1.55a5,5,0,0,0-1.18-.49V8H13.7v2.19a5,5,0,0,0-1.18.49L11,9.13,9.13,11l1.55,1.55a5,5,0,0,0-.49,1.18H8v2.6h2.19a5,5,0,0,0,.49,1.18L9.13,19,11,20.87l1.55-1.55a4.94,4.94,0,0,0,1.18.49V22h2.6V19.81a4.94,4.94,0,0,0,1.18-.49L19,20.87,20.87,19l-1.55-1.55a4.94,4.94,0,0,0,.49-1.18Zm-7,1.45A2.75,2.75,0,1,1,17.75,15,2.75,2.75,0,0,1,15,17.75Z"/></symbol></svg>